#!OML:ASF Y:\EmotionMaleHayes\Project 1\Capture day 1\Session 1\Male1.ASF
:FULLY-SPECIFIED
:DEGREES
952
root 45.8363 16.8744 -0.0542459 387.221 95.9441 393.344
lowerback 5.86813 1.14999 2.27876
upperback 7.90909 1.8557 2.73851
thorax 4.89778 1.11685 1.55389
lowerneck -24.3245 -0.711393 2.60416
upperneck 16.5765 -4.18289 11.6474
head 9.5375 -0.259164 3.05791
rclavicle 6.26172e-015 5.56597e-015
rhumerus -16.9624 12.8911 -87.1753
rradius 28.1219
rwrist 5.47708
rhand -9.99219 -33.2628
rfingers 7.12502
rthumb 15.9912 -62.6228
lclavicle 6.26172e-015 5.56597e-015
lhumerus -21.9301 -7.73395 91.7375
lradius 18.5731
lwrist -11.8948
lhand -18.2829 -24.5547
lfingers 7.12502
lthumb 7.99734 5.27397
rfemur 10.1885 -7.44257 20.9364
rtibia 8.85154
rfoot -15.5681 -4.42064
rtoes 23.052
lfemur -1.71108 1.48069 -4.25503
ltibia 45.9338
lfoot -12.7426 -7.5052
ltoes -20.3379
953
root 45.8736 16.8847 -0.0340127 386.181 95.6751 392.308
lowerback 5.76363 1.19169 1.80883
upperback 7.96785 1.89418 2.77921
thorax 5.00149 1.11006 1.86306
lowerneck -24.2738 -0.715008 2.54637
upperneck 16.5435 -4.18851 11.7915
head 9.52379 -0.250539 3.11663
rclavicle 4.37326e-015 1.55052e-014
rhumerus -16.7942 12.6468 -87.11
rradius 28.0488
rwrist 6.04492
rhand -9.88577 -33.266
rfingers 7.12502
rthumb 16.0936 -62.6177
lclavicle 4.37326e-015 1.55052e-014
lhumerus -21.7539 -7.5694 91.7796
lradius 18.5305
lwrist -12.1893
lhand -18.2326 -24.5649
lfingers 7.12502
lthumb 8.04588 5.26194
rfemur 10.3805 -6.63907 21.0484
rtibia 8.50848
rfoot -15.6279 -5.32176
rtoes 21.4756
lfemur -1.65588 1.72911 -4.43325
ltibia 45.2223
lfoot -14.1242 -6.22616
ltoes -21.7687
954
root 45.9021 16.8904 -0.0354932 386.28 95.5412 392.322
lowerback 5.76674 1.17069 1.82834
upperback 7.89624 1.86346 2.76167
thorax 4.92512 1.09375 1.83166
lowerneck -24.2566 -0.706078 2.50918
upperneck 16.6244 -4.20013 11.9406
head 9.55665 -0.23506 3.17624
rclavicle 1.09332e-015 1.19271e-014
rhumerus -16.7804 12.6316 -87.1627
rradius 27.942
rwrist 6.24466
rhand -10.0526 -33.1972
rfingers 7.12502
rthumb 15.933 -62.5619
lclavicle 1.09332e-015 1.19271e-014
lhumerus -21.8183 -7.43358 91.8064
lradius 18.7234
lwrist -12.4058
lhand -18.0075 -24.3379
lfingers 7.12502
lthumb 8.26311 5.48053
rfemur 10.4704 -6.4759 21.0461
rtibia 8.58494
rfoot -15.9129 -5.08001
rtoes 23.3533
lfemur -1.76185 1.87541 -4.63608
ltibia 44.4655
lfoot -15.2561 -4.97843
ltoes -21.892
955
root 45.9211 16.8974 -0.0225535 383.136 95.0126 389.205
lowerback 5.98723 1.31863 1.30601
upperback 7.88696 2.05627 2.6327
thorax 4.77376 1.16527 1.97801
lowerneck -24.3139 -0.675841 2.4792
upperneck 16.6305 -4.17628 12.0674
head 9.57318 -0.207087 3.23127
rclavicle 3.97569e-016 -1.98785e-015
rhumerus -16.7672 12.4859 -87.1753
rradius 27.9277
rwrist 6.27347
rhand -10.1456 -33.1594
rfingers 7.12502
rthumb 15.8434 -62.5312
lclavicle 3.97569e-016 -1.98785e-015
lhumerus -21.8171 -7.77172 91.9104
lradius 18.9052
lwrist -12.3825
lhand -18.0284 -24.286
lfingers 7.12502
lthumb 8.24288 5.53323
rfemur 10.4447 -5.46292 20.7972
rtibia 8.63269
rfoot -16.1698 -5.57741
rtoes 24.2767
lfemur -1.72847 2.14313 -5.22388
ltibia 43.6531
lfoot -16.277 -3.78607
ltoes -21.9452
956
root 45.9438 16.8979 -0.0195933 390.197 95.16 396.475
lowerback 6.34568 1.31565 2.04355
upperback 7.87172 2.08901 2.81906
thorax 4.57666 1.21905 1.74686
lowerneck -24.3196 -0.828606 2.33695
upperneck 16.7033 -4.37431 12.1923
head 9.61859 -0.288142 3.27091
rclavicle 5.76476e-015 1.63003e-014
rhumerus -16.8792 12.5355 -87.167
rradius 28.0562
rwrist 5.9944
rhand -10.2506 -33.4243
rfingers 7.12502
rthumb 15.7423 -62.8041
lclavicle 5.76476e-015 1.63003e-014
lhumerus -21.8212 -8.02822 92.0621
lradius 18.9286
lwrist -12.4904
lhand -18.3424 -24.7196
lfingers 7.12502
lthumb 7.93992 5.11128
rfemur 10.6382 -5.32818 21.6858
rtibia 8.73234
rfoot -16.2217 -5.9123
rtoes 21.8347
lfemur -1.5225 2.30957 -4.47417
ltibia 42.7558
lfoot -17.1294 -3.03034
ltoes -20.795
957
root 45.9668 16.911 -0.0259877 381.664 94.7019 387.581
lowerback 6.0922 1.35606 1.28489
upperback 7.81184 2.10618 2.57853
thorax 4.63492 1.18866 1.92613
lowerneck -24.3826 -0.844743 2.34053
upperneck 16.7156 -4.38941 12.1114
head 9.63149 -0.303174 3.2399
rclavicle 1.14301e-014 4.37326e-015
rhumerus -16.8282 12.6234 -87.1575
rradius 28.1717
rwrist 5.61993
rhand -10.1712 -33.8591
rfingers 7.12502
rthumb 15.8188 -63.2329
lclavicle 1.14301e-014 4.37326e-015
lhumerus -21.7056 -8.0623 92.1356
lradius 19.0159
lwrist -12.8428
lhand -18.4291 -25.0967
lfingers 7.12502
lthumb 7.85615 4.73732
rfemur 10.4021 -5.46989 20.5536
rtibia 8.74154
rfoot -16.1184 -5.83977
rtoes 20.7757
lfemur -1.81288 2.23815 -5.8246
ltibia 41.7266
lfoot -17.9489 -2.08156
ltoes -19.416
958
root 45.9951 16.9213 -0.0351458 381.288 94.5916 386.897
lowerback 5.79645 1.35505 1.39899
upperback 7.77194 2.09441 2.50693
thorax 4.76507 1.18687 1.79712
lowerneck -24.5539 -0.811246 2.48093
upperneck 16.8151 -4.37663 11.914
head 9.68633 -0.302029 3.15264
rclavicle -3.04141e-014 -8.34896e-015
rhumerus -16.7596 12.4297 -87.1736
rradius 28.281
rwrist 5.6605
rhand -10.0726 -33.914
rfingers 7.12502
rthumb 15.9137 -63.2802
lclavicle -3.04141e-014 -8.34896e-015
lhumerus -21.657 -8.36038 92.2263
lradius 19.244
lwrist -12.8852
lhand -18.2741 -25.1264
lfingers 7.12502
lthumb 8.00576 4.70201
rfemur 10.2018 -5.76883 20.3365
rtibia 8.74815
rfoot -15.9833 -5.47985
rtoes 20.9899
lfemur -1.97791 2.18341 -6.20162
ltibia 40.4685
lfoot -18.7379 -1.27787
ltoes -19.9585
